<?xml version="1.0" encoding="utf-8"?>
<!-- Generator: Adobe Illustrator 19.2.1, SVG Export Plug-In . SVG Version: 6.00 Build 0)  -->
<svg version="1.1" id="Outline" xmlns="http://www.w3.org/2000/svg" xmlns:xlink="http://www.w3.org/1999/xlink" x="0px" y="0px"
	 viewBox="0 0 25 25" style="enable-background:new 0 0 25 25;" xml:space="preserve">
<style type="text/css">
	.st0{fill:url(#SVGID_1_);}
	.st1{fill:#FFFFFF;}
</style>
<linearGradient id="SVGID_1_" gradientUnits="userSpaceOnUse" x1="0.6532" y1="841.3532" x2="24.3918" y2="817.6146" gradientTransform="matrix(1 0 0 1 0 -817)">
	<stop  offset="0" style="stop-color:#56D8E4"/>
	<stop  offset="1" style="stop-color:#0D00FF"/>
</linearGradient>
<path class="st0" d="M22.8,25H2.2C1,25,0,24,0,22.8V2.2C0,1,1,0,2.2,0h20.7C24,0,25,1,25,2.2v20.7C25,24,24,25,22.8,25z"/>
<g>
	<path class="st1" d="M1.5,15.2l4.3,4.4c1.2,1.3,3.2,1.3,4.4,0L23.5,6.1c0.4-0.5,0.4-1.1,0-1.4c-0.4-0.4-1-0.4-1.4,0L8.8,18.1
		c-0.4,0.5-1.1,0.5-1.4,0L3,13.7c-0.5-0.4-1.1-0.4-1.4,0C1.1,14.2,1.1,14.8,1.5,15.2L1.5,15.2z"/>
</g>
</svg>
