<?xml version="1.0" encoding="utf-8"?>
<!-- Generator: Adobe Illustrator 19.2.1, SVG Export Plug-In . SVG Version: 6.00 Build 0)  -->
<svg version="1.1" id="Layer_1" xmlns="http://www.w3.org/2000/svg" xmlns:xlink="http://www.w3.org/1999/xlink" x="0px" y="0px"
	 viewBox="0 0 25 25" style="enable-background:new 0 0 25 25;" xml:space="preserve">
<style type="text/css">
	.st0{fill:url(#SVGID_1_);}
</style>
<linearGradient id="SVGID_1_" gradientUnits="userSpaceOnUse" x1="3.6612" y1="21.3388" x2="21.3349" y2="3.6651">
	<stop  offset="0" style="stop-color:#56D8E4"/>
	<stop  offset="1" style="stop-color:#0D00FF"/>
</linearGradient>
<path class="st0" d="M12.5,0C5.6,0,0,5.6,0,12.5S5.6,25,12.5,25S25,19.4,25,12.5C25,5.6,19.4,0,12.5,0z M16.7,13.5h-3.1v3.1
	c0,0.6-0.5,1-1,1s-1-0.5-1-1v-3.1H8.3c-0.6,0-1-0.5-1-1s0.5-1,1-1h3.1V8.3c0-0.6,0.5-1,1-1s1,0.5,1,1v3.1h3.1c0.6,0,1,0.5,1,1
	S17.2,13.5,16.7,13.5z"/>
</svg>
