<?xml version="1.0" encoding="utf-8"?>
<!-- Generator: Adobe Illustrator 19.2.1, SVG Export Plug-In . SVG Version: 6.00 Build 0)  -->
<svg version="1.1" id="Слой_1" xmlns="http://www.w3.org/2000/svg" xmlns:xlink="http://www.w3.org/1999/xlink" x="0px" y="0px"
	 viewBox="0 0 25 25" style="enable-background:new 0 0 25 25;" xml:space="preserve">
<style type="text/css">
	.st0{fill:#FFFFFF;}
</style>
<g>
	<g>
		<path class="st0" d="M17.5,25H7.4c-2.1,0-3.7-1.7-3.7-3.7V10c0-0.4,0.3-0.6,0.6-0.6S5,9.6,5,10v11.3c0,1.4,1.1,2.4,2.4,2.4h10.1
			c1.4,0,2.4-1.1,2.4-2.4V10c0-0.4,0.3-0.6,0.6-0.6c0.4,0,0.6,0.3,0.6,0.6v11.3C21.2,23.3,19.5,25,17.5,25z"/>
	</g>
	<g>
		<path class="st0" d="M20.8,3.1h-4.8C15.8,1.3,14.3,0,12.5,0S9.2,1.3,8.8,3.1H4.1c-1.4,0-2.6,1.1-2.6,2.6s1.1,2.5,2.6,2.5h16.8
			c1.4,0,2.6-1.1,2.6-2.6S22.3,3.1,20.8,3.1z M12.5,1.3c1.1,0,2.1,0.8,2.3,1.8h-4.7C10.4,2,11.3,1.3,12.5,1.3z M20.8,6.9H4.1
			c-0.7,0-1.3-0.6-1.3-1.3c0-0.7,0.6-1.3,1.3-1.3h16.8c0.7,0,1.3,0.6,1.3,1.3C22.2,6.3,21.6,6.9,20.8,6.9z"/>
	</g>
	<g>
		<path class="st0" d="M8.1,21.9c-0.4,0-0.6-0.3-0.6-0.6V10.9c0-0.4,0.3-0.6,0.6-0.6c0.4,0,0.6,0.3,0.6,0.6v10.4
			C8.7,21.6,8.4,21.9,8.1,21.9z"/>
	</g>
	<g>
		<path class="st0" d="M16.8,21.9c-0.4,0-0.6-0.3-0.6-0.6V10.9c0-0.4,0.3-0.6,0.6-0.6s0.6,0.3,0.6,0.6v10.4
			C17.5,21.6,17.2,21.9,16.8,21.9z"/>
	</g>
	<g>
		<path class="st0" d="M12.5,21.9c-0.4,0-0.6-0.3-0.6-0.6V10.9c0-0.4,0.2-0.6,0.6-0.6c0.4,0,0.6,0.3,0.6,0.6v10.4
			C13.1,21.6,12.8,21.9,12.5,21.9z"/>
	</g>
</g>
</svg>
