<?xml version="1.0" encoding="utf-8"?>
<!-- Generator: Adobe Illustrator 19.2.1, SVG Export Plug-In . SVG Version: 6.00 Build 0)  -->
<svg version="1.1" id="Outline" xmlns="http://www.w3.org/2000/svg" xmlns:xlink="http://www.w3.org/1999/xlink" x="0px" y="0px"
	 viewBox="0 0 25 25" style="enable-background:new 0 0 25 25;" xml:space="preserve">
<style type="text/css">
	.st0{fill:url(#SVGID_1_);}
	.st1{fill:#FFFFFF;}
</style>
<linearGradient id="SVGID_1_" gradientUnits="userSpaceOnUse" x1="0.6532" y1="0.5368" x2="24.3918" y2="24.2754" gradientTransform="matrix(1 0 0 -1 0 24.89)">
	<stop  offset="0" style="stop-color:#56D8E4"/>
	<stop  offset="1" style="stop-color:#0D00FF"/>
</linearGradient>
<path class="st0" d="M22.8,25H2.2C1,25,0,24,0,22.8V2.2C0,1,1,0,2.2,0h20.7C24,0,25,1,25,2.2v20.7C25,24,24,25,22.8,25z"/>
<path class="st1" d="M20.5,3.9c-1.1-1.1-2.8-1.1-3.9,0L4.4,16.1c-0.7,0.7-1.1,1.7-1.1,2.7v1.5c0,0.4,0.3,0.8,0.8,0.8h1.5
	c1,0,2-0.4,2.7-1.1L20.5,7.7C21.6,6.6,21.6,4.9,20.5,3.9z M7.2,18.9c-0.4,0.4-1,0.7-1.6,0.7H4.8v-0.8c0-0.6,0.2-1.2,0.7-1.6l9.3-9.3
	l1.7,1.7L7.2,18.9z M19.4,6.6l-1.9,1.9l-1.7-1.7l1.9-1.9c0.5-0.5,1.3-0.5,1.7,0C19.9,5.4,19.9,6.2,19.4,6.6L19.4,6.6L19.4,6.6z"/>
</svg>
