<?xml version="1.0" encoding="utf-8"?>
<!-- Generator: Adobe Illustrator 19.2.1, SVG Export Plug-In . SVG Version: 6.00 Build 0)  -->
<svg version="1.1" id="Outline" xmlns="http://www.w3.org/2000/svg" xmlns:xlink="http://www.w3.org/1999/xlink" x="0px" y="0px"
	 viewBox="0 0 25 25" style="enable-background:new 0 0 25 25;" xml:space="preserve">
<style type="text/css">
	.st0{fill:url(#SVGID_1_);}
	.st1{fill:#FFFFFF;}
</style>
<linearGradient id="SVGID_1_" gradientUnits="userSpaceOnUse" x1="0.6532" y1="0.5368" x2="24.3918" y2="24.2754" gradientTransform="matrix(1 0 0 -1 0 24.89)">
	<stop  offset="0" style="stop-color:#FFA92A"/>
	<stop  offset="1" style="stop-color:#FF0000"/>
</linearGradient>
<path class="st0" d="M22.8,25H2.2C1,25,0,24,0,22.8V2.2C0,1,1,0,2.2,0h20.7C24,0,25,1,25,2.2v20.7C25,24,24,25,22.8,25z"/>
<path class="st1" d="M21.1,3.9L21.1,3.9c-0.6-0.6-1.5-0.6-2,0l-6.6,6.6L5.9,3.9c-0.6-0.6-1.5-0.6-2,0l0,0c-0.6,0.6-0.6,1.5,0,2
	l6.6,6.6l-6.6,6.6c-0.6,0.6-0.6,1.5,0,2l0,0c0.6,0.6,1.5,0.6,2,0l6.6-6.6l6.6,6.6c0.6,0.6,1.5,0.6,2,0l0,0c0.6-0.6,0.6-1.5,0-2
	l-6.6-6.6l6.6-6.6C21.6,5.4,21.6,4.5,21.1,3.9z"/>
</svg>
