<?xml version="1.0" encoding="utf-8"?>
<!-- Generator: Adobe Illustrator 19.2.1, SVG Export Plug-In . SVG Version: 6.00 Build 0)  -->
<svg version="1.1" id="Capa_1" xmlns="http://www.w3.org/2000/svg" xmlns:xlink="http://www.w3.org/1999/xlink" x="0px" y="0px"
	 viewBox="0 0 25 25" style="enable-background:new 0 0 25 25;" xml:space="preserve">
<style type="text/css">
	.st0{fill:url(#SVGID_1_);}
	.st1{fill:#FFFFFF;}
</style>
<linearGradient id="SVGID_1_" gradientUnits="userSpaceOnUse" x1="0.6307" y1="24.3693" x2="24.3693" y2="0.6307">
	<stop  offset="0" style="stop-color:#00FF2A"/>
	<stop  offset="1" style="stop-color:#004A00"/>
</linearGradient>
<path class="st0" d="M22.8,25H2.2C1,25,0,24,0,22.8L0,2.2C0,1,1,0,2.2,0l20.7,0C24,0,25,1,25,2.2v20.7C25,24,24,25,22.8,25z"/>
<g id="_01_align_center">
	<path class="st1" d="M22.6,11.8L22.6,11.8c-0.7-1.5-3.5-6.6-9.5-6.6s-8.8,5-9.5,6.6c-0.2,0.4-0.2,0.9,0,1.3
		c0.7,1.5,3.5,6.6,9.5,6.6s8.8-5,9.5-6.6C22.8,12.7,22.8,12.3,22.6,11.8z M13.1,18.1c-5.1,0-7.4-4.3-8-5.6c0.6-1.3,3-5.6,8-5.6
		c5.1,0,7.4,4.3,8,5.6C20.5,13.8,18.1,18.1,13.1,18.1z"/>
	<path class="st1" d="M13.7,8.5c-2.7-0.4-5,1.9-4.6,4.6c0.3,1.7,1.6,3.1,3.3,3.3c2.7,0.4,5-1.9,4.6-4.6C16.8,10.2,15.4,8.8,13.7,8.5
		z M13.1,14.9c-1.3,0-2.4-1.1-2.4-2.4s1.1-2.4,2.4-2.4s2.4,1.1,2.4,2.4S14.4,14.9,13.1,14.9z"/>
</g>
</svg>
