<?xml version="1.0" encoding="utf-8"?>
<!-- Generator: Adobe Illustrator 19.2.1, SVG Export Plug-In . SVG Version: 6.00 Build 0)  -->
<svg version="1.1" id="Outline" xmlns="http://www.w3.org/2000/svg" xmlns:xlink="http://www.w3.org/1999/xlink" x="0px" y="0px"
	 viewBox="0 0 25 17" style="enable-background:new 0 0 25 17;" xml:space="preserve">
<style type="text/css">
	.st0{fill:#FFFFFF;}
</style>
<g>
	<path class="st0" d="M1,7.4H24c0.6,0,1,0.5,1,1.1l0,0c0,0.6-0.5,1.1-1,1.1H1c-0.6,0-1-0.5-1-1.1l0,0C0,7.9,0.5,7.4,1,7.4z"/>
	<path class="st0" d="M1,0H24c0.6,0,1,0.5,1,1.1l0,0c0,0.6-0.5,1.1-1,1.1H1c-0.6,0-1-0.5-1-1.1l0,0C0,0.5,0.5,0,1,0z"/>
	<path class="st0" d="M1,14.9H24c0.6,0,1,0.5,1,1.1l0,0c0,0.6-0.5,1.1-1,1.1H1c-0.6,0-1-0.5-1-1.1l0,0C0,15.4,0.5,14.9,1,14.9z"/>
</g>
</svg>
